<mxfile host="app.diagrams.net" modified="2023-07-22T12:08:49.228Z" agent="Mozilla/5.0 (Windows NT 10.0; Win64; x64) AppleWebKit/537.36 (KHTML, like Gecko) Chrome/115.0.0.0 Safari/537.36" etag="caUHTuGx0n1AUh7SfoGh" version="21.6.5" type="google">
  <diagram name="Page-1" id="WlVGrAO1MrSw596TCTu8">
    <mxGraphModel grid="1" page="1" gridSize="10" guides="1" tooltips="1" connect="1" arrows="1" fold="1" pageScale="1" pageWidth="850" pageHeight="1100" math="0" shadow="0">
      <root>
        <mxCell id="0" />
        <mxCell id="1" parent="0" />
        <mxCell id="f_DUezeZ9Hj34BGr3cMz-13" value="" style="ellipse;html=1;shape=startState;fillColor=#000000;strokeColor=#ff0000;" vertex="1" parent="1">
          <mxGeometry x="53" y="185" width="30" height="30" as="geometry" />
        </mxCell>
        <mxCell id="f_DUezeZ9Hj34BGr3cMz-14" value="" style="edgeStyle=orthogonalEdgeStyle;html=1;verticalAlign=bottom;endArrow=open;endSize=8;strokeColor=#ff0000;rounded=0;entryX=0;entryY=0.5;entryDx=0;entryDy=0;entryPerimeter=0;" edge="1" parent="1" target="f_DUezeZ9Hj34BGr3cMz-15">
          <mxGeometry relative="1" as="geometry">
            <mxPoint x="117" y="200" as="targetPoint" />
            <mxPoint x="80" y="200" as="sourcePoint" />
          </mxGeometry>
        </mxCell>
        <mxCell id="f_DUezeZ9Hj34BGr3cMz-47" value="idle" style="edgeLabel;html=1;align=center;verticalAlign=middle;resizable=0;points=[];" connectable="0" vertex="1" parent="f_DUezeZ9Hj34BGr3cMz-14">
          <mxGeometry x="-0.1717" y="1" relative="1" as="geometry">
            <mxPoint y="-9" as="offset" />
          </mxGeometry>
        </mxCell>
        <mxCell id="f_DUezeZ9Hj34BGr3cMz-15" value="Current Account" style="rounded=1;whiteSpace=wrap;html=1;arcSize=40;fontColor=#000000;fillColor=#ffffc0;strokeColor=#ff0000;" vertex="1" parent="1">
          <mxGeometry x="120" y="180" width="120" height="40" as="geometry" />
        </mxCell>
        <mxCell id="f_DUezeZ9Hj34BGr3cMz-16" value="" style="edgeStyle=orthogonalEdgeStyle;html=1;verticalAlign=bottom;endArrow=open;endSize=8;strokeColor=#ff0000;rounded=0;" edge="1" parent="1">
          <mxGeometry relative="1" as="geometry">
            <mxPoint x="280" y="200" as="targetPoint" />
            <mxPoint x="240" y="200" as="sourcePoint" />
            <Array as="points">
              <mxPoint x="240" y="200" />
              <mxPoint x="240" y="200" />
            </Array>
          </mxGeometry>
        </mxCell>
        <mxCell id="f_DUezeZ9Hj34BGr3cMz-48" value="Send &lt;br&gt;Details" style="edgeLabel;html=1;align=center;verticalAlign=middle;resizable=0;points=[];" connectable="0" vertex="1" parent="f_DUezeZ9Hj34BGr3cMz-16">
          <mxGeometry x="-0.01" relative="1" as="geometry">
            <mxPoint y="-20" as="offset" />
          </mxGeometry>
        </mxCell>
        <mxCell id="f_DUezeZ9Hj34BGr3cMz-17" value="Validate&amp;nbsp; Account" style="rounded=1;whiteSpace=wrap;html=1;arcSize=40;fontColor=#000000;fillColor=#ffffc0;strokeColor=#ff0000;" vertex="1" parent="1">
          <mxGeometry x="280" y="180" width="120" height="40" as="geometry" />
        </mxCell>
        <mxCell id="f_DUezeZ9Hj34BGr3cMz-18" value="" style="edgeStyle=orthogonalEdgeStyle;html=1;verticalAlign=bottom;endArrow=open;endSize=8;strokeColor=#ff0000;rounded=0;" edge="1" parent="1" source="f_DUezeZ9Hj34BGr3cMz-17">
          <mxGeometry relative="1" as="geometry">
            <mxPoint x="440" y="200" as="targetPoint" />
          </mxGeometry>
        </mxCell>
        <mxCell id="f_DUezeZ9Hj34BGr3cMz-49" value="Validate&lt;br&gt;Details" style="edgeLabel;html=1;align=center;verticalAlign=middle;resizable=0;points=[];" connectable="0" vertex="1" parent="f_DUezeZ9Hj34BGr3cMz-18">
          <mxGeometry x="-0.1705" y="-1" relative="1" as="geometry">
            <mxPoint x="3" y="-21" as="offset" />
          </mxGeometry>
        </mxCell>
        <mxCell id="f_DUezeZ9Hj34BGr3cMz-19" value="Reject Details" style="rounded=1;whiteSpace=wrap;html=1;arcSize=40;fontColor=#000000;fillColor=#ffffc0;strokeColor=#ff0000;" vertex="1" parent="1">
          <mxGeometry x="420" y="281" width="120" height="40" as="geometry" />
        </mxCell>
        <mxCell id="f_DUezeZ9Hj34BGr3cMz-20" value="" style="edgeStyle=orthogonalEdgeStyle;html=1;verticalAlign=bottom;endArrow=open;endSize=8;strokeColor=#ff0000;rounded=0;" edge="1" parent="1" source="f_DUezeZ9Hj34BGr3cMz-19">
          <mxGeometry relative="1" as="geometry">
            <mxPoint x="480" y="360" as="targetPoint" />
            <Array as="points">
              <mxPoint x="480" y="350" />
              <mxPoint x="480" y="350" />
            </Array>
          </mxGeometry>
        </mxCell>
        <mxCell id="f_DUezeZ9Hj34BGr3cMz-21" value="Valid" style="rhombus;whiteSpace=wrap;html=1;fontColor=#000000;fillColor=#ffffc0;strokeColor=#ff0000;" vertex="1" parent="1">
          <mxGeometry x="440" y="172" width="80" height="55" as="geometry" />
        </mxCell>
        <mxCell id="f_DUezeZ9Hj34BGr3cMz-22" value="Accept" style="edgeStyle=orthogonalEdgeStyle;html=1;align=left;verticalAlign=bottom;endArrow=open;endSize=8;strokeColor=#ff0000;rounded=0;exitX=0.5;exitY=0;exitDx=0;exitDy=0;entryX=0.5;entryY=0;entryDx=0;entryDy=0;" edge="1" parent="1" source="f_DUezeZ9Hj34BGr3cMz-21" target="f_DUezeZ9Hj34BGr3cMz-29">
          <mxGeometry x="-0.9048" y="-10" relative="1" as="geometry">
            <mxPoint x="640" y="160" as="targetPoint" />
            <Array as="points">
              <mxPoint x="480" y="120" />
              <mxPoint x="680" y="120" />
              <mxPoint x="680" y="201" />
            </Array>
            <mxPoint as="offset" />
          </mxGeometry>
        </mxCell>
        <mxCell id="f_DUezeZ9Hj34BGr3cMz-23" value="Reject" style="edgeStyle=orthogonalEdgeStyle;html=1;align=left;verticalAlign=top;endArrow=open;endSize=8;strokeColor=#ff0000;rounded=0;" edge="1" parent="1" source="f_DUezeZ9Hj34BGr3cMz-21">
          <mxGeometry x="-0.8879" y="10" relative="1" as="geometry">
            <mxPoint x="480" y="280" as="targetPoint" />
            <mxPoint as="offset" />
          </mxGeometry>
        </mxCell>
        <mxCell id="f_DUezeZ9Hj34BGr3cMz-25" value="Account Rejected" style="rounded=1;whiteSpace=wrap;html=1;arcSize=40;fontColor=#000000;fillColor=#ffffc0;strokeColor=#ff0000;" vertex="1" parent="1">
          <mxGeometry x="420" y="361" width="120" height="40" as="geometry" />
        </mxCell>
        <mxCell id="f_DUezeZ9Hj34BGr3cMz-27" value="" style="edgeStyle=orthogonalEdgeStyle;html=1;verticalAlign=bottom;endArrow=open;endSize=8;strokeColor=#ff0000;rounded=0;" edge="1" parent="1">
          <mxGeometry relative="1" as="geometry">
            <mxPoint x="480" y="440" as="targetPoint" />
            <mxPoint x="480" y="401" as="sourcePoint" />
            <Array as="points">
              <mxPoint x="480" y="430" />
              <mxPoint x="480" y="430" />
            </Array>
          </mxGeometry>
        </mxCell>
        <mxCell id="f_DUezeZ9Hj34BGr3cMz-28" value="" style="ellipse;html=1;shape=endState;fillColor=#000000;strokeColor=#ff0000;" vertex="1" parent="1">
          <mxGeometry x="465" y="440" width="30" height="30" as="geometry" />
        </mxCell>
        <mxCell id="f_DUezeZ9Hj34BGr3cMz-29" value="Current Account Details" style="rounded=1;whiteSpace=wrap;html=1;arcSize=40;fontColor=#000000;fillColor=#ffffc0;strokeColor=#ff0000;" vertex="1" parent="1">
          <mxGeometry x="620" y="200.5" width="120" height="40" as="geometry" />
        </mxCell>
        <mxCell id="f_DUezeZ9Hj34BGr3cMz-30" value="" style="edgeStyle=orthogonalEdgeStyle;html=1;verticalAlign=bottom;endArrow=open;endSize=8;strokeColor=#ff0000;rounded=0;" edge="1" parent="1" source="f_DUezeZ9Hj34BGr3cMz-29">
          <mxGeometry relative="1" as="geometry">
            <mxPoint x="680" y="279.5" as="targetPoint" />
            <Array as="points">
              <mxPoint x="680" y="269.5" />
              <mxPoint x="680" y="269.5" />
            </Array>
          </mxGeometry>
        </mxCell>
        <mxCell id="f_DUezeZ9Hj34BGr3cMz-31" value="Account Created" style="rounded=1;whiteSpace=wrap;html=1;arcSize=40;fontColor=#000000;fillColor=#ffffc0;strokeColor=#ff0000;" vertex="1" parent="1">
          <mxGeometry x="620" y="281" width="120" height="40" as="geometry" />
        </mxCell>
        <mxCell id="f_DUezeZ9Hj34BGr3cMz-32" value="" style="edgeStyle=orthogonalEdgeStyle;html=1;verticalAlign=bottom;endArrow=open;endSize=8;strokeColor=#ff0000;rounded=0;" edge="1" parent="1">
          <mxGeometry relative="1" as="geometry">
            <mxPoint x="680" y="360" as="targetPoint" />
            <mxPoint x="680" y="321" as="sourcePoint" />
            <Array as="points">
              <mxPoint x="680" y="350" />
              <mxPoint x="680" y="350" />
            </Array>
          </mxGeometry>
        </mxCell>
        <mxCell id="f_DUezeZ9Hj34BGr3cMz-33" value="" style="ellipse;html=1;shape=endState;fillColor=#000000;strokeColor=#ff0000;" vertex="1" parent="1">
          <mxGeometry x="665" y="360" width="30" height="30" as="geometry" />
        </mxCell>
        <mxCell id="f_DUezeZ9Hj34BGr3cMz-34" value="" style="ellipse;html=1;shape=startState;fillColor=#000000;strokeColor=#ff0000;" vertex="1" parent="1">
          <mxGeometry x="53" y="705" width="30" height="30" as="geometry" />
        </mxCell>
        <mxCell id="f_DUezeZ9Hj34BGr3cMz-35" value="" style="edgeStyle=orthogonalEdgeStyle;html=1;verticalAlign=bottom;endArrow=open;endSize=8;strokeColor=#ff0000;rounded=0;entryX=0;entryY=0.5;entryDx=0;entryDy=0;entryPerimeter=0;" edge="1" parent="1">
          <mxGeometry relative="1" as="geometry">
            <mxPoint x="120" y="720" as="targetPoint" />
            <mxPoint x="80" y="720" as="sourcePoint" />
          </mxGeometry>
        </mxCell>
        <mxCell id="f_DUezeZ9Hj34BGr3cMz-36" value="Account" style="rounded=1;whiteSpace=wrap;html=1;arcSize=40;fontColor=#000000;fillColor=#ffffc0;strokeColor=#ff0000;" vertex="1" parent="1">
          <mxGeometry x="120" y="700" width="120" height="40" as="geometry" />
        </mxCell>
        <mxCell id="f_DUezeZ9Hj34BGr3cMz-37" value="" style="edgeStyle=orthogonalEdgeStyle;html=1;verticalAlign=bottom;endArrow=open;endSize=8;strokeColor=#ff0000;rounded=0;" edge="1" parent="1">
          <mxGeometry relative="1" as="geometry">
            <mxPoint x="280" y="720" as="targetPoint" />
            <mxPoint x="240" y="720" as="sourcePoint" />
            <Array as="points">
              <mxPoint x="240" y="720" />
              <mxPoint x="240" y="720" />
            </Array>
          </mxGeometry>
        </mxCell>
        <mxCell id="f_DUezeZ9Hj34BGr3cMz-38" value="Validation" style="rounded=1;whiteSpace=wrap;html=1;arcSize=40;fontColor=#000000;fillColor=#ffffc0;strokeColor=#ff0000;" vertex="1" parent="1">
          <mxGeometry x="280" y="700" width="120" height="40" as="geometry" />
        </mxCell>
        <mxCell id="f_DUezeZ9Hj34BGr3cMz-39" value="" style="edgeStyle=orthogonalEdgeStyle;html=1;verticalAlign=bottom;endArrow=open;endSize=8;strokeColor=#ff0000;rounded=0;" edge="1" parent="1">
          <mxGeometry relative="1" as="geometry">
            <mxPoint x="440" y="720" as="targetPoint" />
            <mxPoint x="400" y="720" as="sourcePoint" />
            <Array as="points">
              <mxPoint x="400" y="720" />
              <mxPoint x="400" y="720" />
            </Array>
          </mxGeometry>
        </mxCell>
        <mxCell id="f_DUezeZ9Hj34BGr3cMz-40" value="Valid" style="rhombus;whiteSpace=wrap;html=1;fontColor=#000000;fillColor=#ffffc0;strokeColor=#ff0000;" vertex="1" parent="1">
          <mxGeometry x="440" y="692" width="80" height="55" as="geometry" />
        </mxCell>
        <mxCell id="f_DUezeZ9Hj34BGr3cMz-41" value="Accept" style="edgeStyle=orthogonalEdgeStyle;html=1;align=left;verticalAlign=bottom;endArrow=open;endSize=8;strokeColor=#ff0000;rounded=0;exitX=0.5;exitY=0;exitDx=0;exitDy=0;entryX=0.5;entryY=0;entryDx=0;entryDy=0;" edge="1" parent="1" source="f_DUezeZ9Hj34BGr3cMz-40">
          <mxGeometry x="-0.9048" y="-10" relative="1" as="geometry">
            <mxPoint x="680" y="721" as="targetPoint" />
            <Array as="points">
              <mxPoint x="480" y="640" />
              <mxPoint x="680" y="640" />
              <mxPoint x="680" y="721" />
            </Array>
            <mxPoint as="offset" />
          </mxGeometry>
        </mxCell>
        <mxCell id="f_DUezeZ9Hj34BGr3cMz-42" value="Reject" style="edgeStyle=orthogonalEdgeStyle;html=1;align=left;verticalAlign=top;endArrow=open;endSize=8;strokeColor=#ff0000;rounded=0;" edge="1" parent="1" source="f_DUezeZ9Hj34BGr3cMz-40">
          <mxGeometry x="-0.8879" y="10" relative="1" as="geometry">
            <mxPoint x="480" y="800" as="targetPoint" />
            <mxPoint as="offset" />
          </mxGeometry>
        </mxCell>
        <mxCell id="f_DUezeZ9Hj34BGr3cMz-43" value="Reject Details" style="rounded=1;whiteSpace=wrap;html=1;arcSize=40;fontColor=#000000;fillColor=#ffffc0;strokeColor=#ff0000;" vertex="1" parent="1">
          <mxGeometry x="420" y="801" width="120" height="40" as="geometry" />
        </mxCell>
        <mxCell id="f_DUezeZ9Hj34BGr3cMz-44" value="" style="edgeStyle=orthogonalEdgeStyle;html=1;verticalAlign=bottom;endArrow=open;endSize=8;strokeColor=#ff0000;rounded=0;" edge="1" parent="1" source="f_DUezeZ9Hj34BGr3cMz-43">
          <mxGeometry relative="1" as="geometry">
            <mxPoint x="480" y="880" as="targetPoint" />
            <Array as="points">
              <mxPoint x="480" y="870" />
              <mxPoint x="480" y="870" />
            </Array>
          </mxGeometry>
        </mxCell>
        <mxCell id="f_DUezeZ9Hj34BGr3cMz-45" value="Deposit" style="rounded=1;whiteSpace=wrap;html=1;arcSize=40;fontColor=#000000;fillColor=#ffffc0;strokeColor=#ff0000;" vertex="1" parent="1">
          <mxGeometry x="620" y="721" width="120" height="40" as="geometry" />
        </mxCell>
        <mxCell id="f_DUezeZ9Hj34BGr3cMz-46" value="" style="edgeStyle=orthogonalEdgeStyle;html=1;verticalAlign=bottom;endArrow=open;endSize=8;strokeColor=#ff0000;rounded=0;" edge="1" parent="1" source="f_DUezeZ9Hj34BGr3cMz-45">
          <mxGeometry relative="1" as="geometry">
            <mxPoint x="680" y="800" as="targetPoint" />
            <Array as="points">
              <mxPoint x="680" y="790" />
              <mxPoint x="680" y="790" />
            </Array>
          </mxGeometry>
        </mxCell>
        <mxCell id="f_DUezeZ9Hj34BGr3cMz-50" value="" style="ellipse;html=1;shape=endState;fillColor=#000000;strokeColor=#ff0000;" vertex="1" parent="1">
          <mxGeometry x="465" y="880" width="30" height="30" as="geometry" />
        </mxCell>
        <mxCell id="f_DUezeZ9Hj34BGr3cMz-51" value="" style="ellipse;html=1;shape=endState;fillColor=#000000;strokeColor=#ff0000;" vertex="1" parent="1">
          <mxGeometry x="665" y="800" width="30" height="30" as="geometry" />
        </mxCell>
        <mxCell id="f_DUezeZ9Hj34BGr3cMz-52" value="" style="ellipse;html=1;shape=startState;fillColor=#000000;strokeColor=#ff0000;" vertex="1" parent="1">
          <mxGeometry x="53" y="1265" width="30" height="30" as="geometry" />
        </mxCell>
        <mxCell id="f_DUezeZ9Hj34BGr3cMz-53" value="" style="edgeStyle=orthogonalEdgeStyle;html=1;verticalAlign=bottom;endArrow=open;endSize=8;strokeColor=#ff0000;rounded=0;entryX=0;entryY=0.5;entryDx=0;entryDy=0;entryPerimeter=0;" edge="1" parent="1">
          <mxGeometry relative="1" as="geometry">
            <mxPoint x="120" y="1280" as="targetPoint" />
            <mxPoint x="80" y="1280" as="sourcePoint" />
          </mxGeometry>
        </mxCell>
        <mxCell id="f_DUezeZ9Hj34BGr3cMz-54" value="Account" style="rounded=1;whiteSpace=wrap;html=1;arcSize=40;fontColor=#000000;fillColor=#ffffc0;strokeColor=#ff0000;" vertex="1" parent="1">
          <mxGeometry x="120" y="1260" width="120" height="40" as="geometry" />
        </mxCell>
        <mxCell id="f_DUezeZ9Hj34BGr3cMz-55" value="" style="edgeStyle=orthogonalEdgeStyle;html=1;verticalAlign=bottom;endArrow=open;endSize=8;strokeColor=#ff0000;rounded=0;" edge="1" parent="1">
          <mxGeometry relative="1" as="geometry">
            <mxPoint x="280" y="1280" as="targetPoint" />
            <mxPoint x="240" y="1280" as="sourcePoint" />
            <Array as="points">
              <mxPoint x="240" y="1280" />
              <mxPoint x="240" y="1280" />
            </Array>
          </mxGeometry>
        </mxCell>
        <mxCell id="f_DUezeZ9Hj34BGr3cMz-56" value="Validation" style="rounded=1;whiteSpace=wrap;html=1;arcSize=40;fontColor=#000000;fillColor=#ffffc0;strokeColor=#ff0000;" vertex="1" parent="1">
          <mxGeometry x="280" y="1260" width="120" height="40" as="geometry" />
        </mxCell>
        <mxCell id="f_DUezeZ9Hj34BGr3cMz-57" value="" style="edgeStyle=orthogonalEdgeStyle;html=1;verticalAlign=bottom;endArrow=open;endSize=8;strokeColor=#ff0000;rounded=0;" edge="1" parent="1">
          <mxGeometry relative="1" as="geometry">
            <mxPoint x="440" y="1280" as="targetPoint" />
            <mxPoint x="400" y="1280" as="sourcePoint" />
            <Array as="points">
              <mxPoint x="400" y="1280" />
              <mxPoint x="400" y="1280" />
            </Array>
          </mxGeometry>
        </mxCell>
        <mxCell id="f_DUezeZ9Hj34BGr3cMz-58" value="Valid" style="rhombus;whiteSpace=wrap;html=1;fontColor=#000000;fillColor=#ffffc0;strokeColor=#ff0000;" vertex="1" parent="1">
          <mxGeometry x="440" y="1252" width="80" height="55" as="geometry" />
        </mxCell>
        <mxCell id="f_DUezeZ9Hj34BGr3cMz-59" value="Accept" style="edgeStyle=orthogonalEdgeStyle;html=1;align=left;verticalAlign=bottom;endArrow=open;endSize=8;strokeColor=#ff0000;rounded=0;exitX=0.5;exitY=0;exitDx=0;exitDy=0;entryX=0.5;entryY=0;entryDx=0;entryDy=0;" edge="1" parent="1" source="f_DUezeZ9Hj34BGr3cMz-58">
          <mxGeometry x="-0.9048" y="-10" relative="1" as="geometry">
            <mxPoint x="680" y="1281" as="targetPoint" />
            <Array as="points">
              <mxPoint x="480" y="1200" />
              <mxPoint x="680" y="1200" />
              <mxPoint x="680" y="1281" />
            </Array>
            <mxPoint as="offset" />
          </mxGeometry>
        </mxCell>
        <mxCell id="f_DUezeZ9Hj34BGr3cMz-60" value="Reject" style="edgeStyle=orthogonalEdgeStyle;html=1;align=left;verticalAlign=top;endArrow=open;endSize=8;strokeColor=#ff0000;rounded=0;" edge="1" parent="1" source="f_DUezeZ9Hj34BGr3cMz-58">
          <mxGeometry x="-0.8879" y="10" relative="1" as="geometry">
            <mxPoint x="480" y="1360" as="targetPoint" />
            <mxPoint as="offset" />
          </mxGeometry>
        </mxCell>
        <mxCell id="f_DUezeZ9Hj34BGr3cMz-61" value="Reject Details" style="rounded=1;whiteSpace=wrap;html=1;arcSize=40;fontColor=#000000;fillColor=#ffffc0;strokeColor=#ff0000;" vertex="1" parent="1">
          <mxGeometry x="420" y="1361" width="120" height="40" as="geometry" />
        </mxCell>
        <mxCell id="f_DUezeZ9Hj34BGr3cMz-62" value="" style="edgeStyle=orthogonalEdgeStyle;html=1;verticalAlign=bottom;endArrow=open;endSize=8;strokeColor=#ff0000;rounded=0;" edge="1" parent="1" source="f_DUezeZ9Hj34BGr3cMz-61">
          <mxGeometry relative="1" as="geometry">
            <mxPoint x="480" y="1440" as="targetPoint" />
            <Array as="points">
              <mxPoint x="480" y="1430" />
              <mxPoint x="480" y="1430" />
            </Array>
          </mxGeometry>
        </mxCell>
        <mxCell id="f_DUezeZ9Hj34BGr3cMz-63" value="Withdraw" style="rounded=1;whiteSpace=wrap;html=1;arcSize=40;fontColor=#000000;fillColor=#ffffc0;strokeColor=#ff0000;" vertex="1" parent="1">
          <mxGeometry x="620" y="1281" width="120" height="40" as="geometry" />
        </mxCell>
        <mxCell id="f_DUezeZ9Hj34BGr3cMz-64" value="" style="edgeStyle=orthogonalEdgeStyle;html=1;verticalAlign=bottom;endArrow=open;endSize=8;strokeColor=#ff0000;rounded=0;" edge="1" parent="1" source="f_DUezeZ9Hj34BGr3cMz-63">
          <mxGeometry relative="1" as="geometry">
            <mxPoint x="680" y="1380" as="targetPoint" />
            <Array as="points">
              <mxPoint x="680" y="1350" />
              <mxPoint x="680" y="1350" />
            </Array>
          </mxGeometry>
        </mxCell>
        <mxCell id="f_DUezeZ9Hj34BGr3cMz-67" value="Enter &lt;br&gt;Amount" style="edgeLabel;html=1;align=center;verticalAlign=middle;resizable=0;points=[];" connectable="0" vertex="1" parent="f_DUezeZ9Hj34BGr3cMz-64">
          <mxGeometry x="-0.3128" relative="1" as="geometry">
            <mxPoint x="25" y="6" as="offset" />
          </mxGeometry>
        </mxCell>
        <mxCell id="f_DUezeZ9Hj34BGr3cMz-65" value="" style="ellipse;html=1;shape=endState;fillColor=#000000;strokeColor=#ff0000;" vertex="1" parent="1">
          <mxGeometry x="465" y="1439" width="30" height="30" as="geometry" />
        </mxCell>
        <mxCell id="f_DUezeZ9Hj34BGr3cMz-68" value="Amount&amp;nbsp;&lt;br&gt;Sufficient" style="rhombus;whiteSpace=wrap;html=1;fontColor=#000000;fillColor=#ffffc0;strokeColor=#ff0000;" vertex="1" parent="1">
          <mxGeometry x="641" y="1381" width="80" height="55" as="geometry" />
        </mxCell>
        <mxCell id="f_DUezeZ9Hj34BGr3cMz-73" value="" style="edgeStyle=orthogonalEdgeStyle;html=1;verticalAlign=bottom;endArrow=open;endSize=8;strokeColor=#ff0000;rounded=0;exitX=1;exitY=0.5;exitDx=0;exitDy=0;entryX=0.5;entryY=0;entryDx=0;entryDy=0;" edge="1" parent="1" target="f_DUezeZ9Hj34BGr3cMz-77">
          <mxGeometry relative="1" as="geometry">
            <mxPoint x="800" y="1499.75" as="targetPoint" />
            <Array as="points">
              <mxPoint x="880" y="1408" />
            </Array>
            <mxPoint x="721" y="1408.25" as="sourcePoint" />
          </mxGeometry>
        </mxCell>
        <mxCell id="f_DUezeZ9Hj34BGr3cMz-74" value="Sufficient" style="edgeLabel;html=1;align=center;verticalAlign=middle;resizable=0;points=[];" connectable="0" vertex="1" parent="f_DUezeZ9Hj34BGr3cMz-73">
          <mxGeometry x="-0.3128" relative="1" as="geometry">
            <mxPoint x="-9" y="-12" as="offset" />
          </mxGeometry>
        </mxCell>
        <mxCell id="f_DUezeZ9Hj34BGr3cMz-75" value="" style="edgeStyle=orthogonalEdgeStyle;html=1;verticalAlign=bottom;endArrow=open;endSize=8;strokeColor=#ff0000;rounded=0;" edge="1" parent="1">
          <mxGeometry relative="1" as="geometry">
            <mxPoint x="681" y="1510" as="targetPoint" />
            <Array as="points">
              <mxPoint x="681" y="1466" />
              <mxPoint x="681" y="1466" />
            </Array>
            <mxPoint x="681" y="1437" as="sourcePoint" />
          </mxGeometry>
        </mxCell>
        <mxCell id="f_DUezeZ9Hj34BGr3cMz-76" value="Not Sufficient" style="edgeLabel;html=1;align=center;verticalAlign=middle;resizable=0;points=[];" connectable="0" vertex="1" parent="f_DUezeZ9Hj34BGr3cMz-75">
          <mxGeometry x="-0.3128" relative="1" as="geometry">
            <mxPoint x="39" y="6" as="offset" />
          </mxGeometry>
        </mxCell>
        <mxCell id="f_DUezeZ9Hj34BGr3cMz-77" value="Withdraw" style="rounded=1;whiteSpace=wrap;html=1;arcSize=40;fontColor=#000000;fillColor=#ffffc0;strokeColor=#ff0000;" vertex="1" parent="1">
          <mxGeometry x="820" y="1511" width="120" height="40" as="geometry" />
        </mxCell>
        <mxCell id="f_DUezeZ9Hj34BGr3cMz-78" value="" style="ellipse;html=1;shape=endState;fillColor=#000000;strokeColor=#ff0000;" vertex="1" parent="1">
          <mxGeometry x="666" y="1511" width="30" height="30" as="geometry" />
        </mxCell>
      </root>
    </mxGraphModel>
  </diagram>
</mxfile>
